<svg width="166" height="34" viewBox="0 0 166 34" fill="none" xmlns="http://www.w3.org/2000/svg">
<path d="M13.62 30.212L9.88 23.718H5.154V31.436H7.126C7.48867 31.436 7.67 31.5947 7.67 31.912C7.67 32.0707 7.61333 32.3427 7.5 32.728L7.432 33H0.87C0.779333 32.864 0.734 32.6827 0.734 32.456C0.734 32.2067 0.813333 31.98 0.972 31.776L3.25 31.504V12.634H1.278C0.915333 12.634 0.734 12.4753 0.734 12.158C0.734 11.9993 0.790667 11.7273 0.904 11.342L0.972 11.07H9.914C11.1833 11.07 12.26 11.274 13.144 11.682C14.028 12.0673 14.742 12.5887 15.286 13.246C15.83 13.8807 16.2267 14.572 16.476 15.32C16.7253 16.0453 16.85 16.7367 16.85 17.394C16.85 18.1647 16.68 18.9807 16.34 19.842C16.0227 20.6807 15.49 21.44 14.742 22.12C13.994 22.8 13.0193 23.2647 11.818 23.514L15.558 29.736C15.9887 30.4613 16.374 30.9487 16.714 31.198C17.054 31.4247 17.5073 31.538 18.074 31.538C18.2553 31.538 18.448 31.538 18.652 31.538C18.8787 31.5153 19.0713 31.4927 19.23 31.47C19.4113 31.7873 19.5133 32.2067 19.536 32.728C18.7653 33 18.04 33.136 17.36 33.136C16.6347 33.136 15.9773 32.9093 15.388 32.456C14.7987 31.98 14.2093 31.232 13.62 30.212ZM5.154 22.154H9.914C11.4327 22.154 12.634 21.7007 13.518 20.794C14.402 19.8647 14.844 18.7313 14.844 17.394C14.844 16.0567 14.402 14.9347 13.518 14.028C12.634 13.0987 11.4327 12.634 9.914 12.634H5.154V22.154ZM28.9019 31.844C30.0806 31.844 31.1119 31.538 31.9959 30.926C32.9026 30.314 33.5939 29.4527 34.0699 28.342C34.5686 27.2313 34.8179 25.9507 34.8179 24.5C34.8179 23.0493 34.5686 21.7687 34.0699 20.658C33.5939 19.5473 32.9026 18.686 31.9959 18.074C31.1119 17.462 30.0806 17.156 28.9019 17.156C27.7233 17.156 26.6806 17.462 25.7739 18.074C24.8899 18.686 24.1986 19.5473 23.6999 20.658C23.2239 21.7687 22.9859 23.0493 22.9859 24.5C22.9859 25.9507 23.2239 27.2313 23.6999 28.342C24.1986 29.4527 24.8899 30.314 25.7739 30.926C26.6579 31.538 27.7006 31.844 28.9019 31.844ZM28.9019 33.34C27.3153 33.34 25.9326 32.9773 24.7539 32.252C23.5979 31.504 22.6913 30.4727 22.0339 29.158C21.3766 27.8207 21.0479 26.268 21.0479 24.5C21.0479 22.732 21.3766 21.1907 22.0339 19.876C22.6913 18.5387 23.5979 17.5073 24.7539 16.782C25.9326 16.034 27.3153 15.66 28.9019 15.66C30.4886 15.66 31.8599 16.034 33.0159 16.782C34.1946 17.5073 35.1126 18.5387 35.7699 19.876C36.4273 21.1907 36.7559 22.732 36.7559 24.5C36.7559 26.268 36.4273 27.8207 35.7699 29.158C35.1126 30.4727 34.1946 31.504 33.0159 32.252C31.8599 32.9773 30.4886 33.34 28.9019 33.34ZM41.2729 33.102V11.818H38.5189C38.4509 11.6593 38.4169 11.5007 38.4169 11.342C38.4169 11.138 38.4849 10.9227 38.6209 10.696L42.1569 10.05C42.5422 10.254 42.8596 10.5033 43.1089 10.798V19.434C43.7436 18.278 44.5822 17.36 45.6249 16.68C46.6902 16 47.8462 15.66 49.0929 15.66C50.4076 15.66 51.5749 16.034 52.5949 16.782C53.6376 17.5073 54.4422 18.5273 55.0089 19.842C55.5982 21.134 55.8929 22.63 55.8929 24.33C55.8929 26.1433 55.5642 27.73 54.9069 29.09C54.2496 30.4273 53.3202 31.47 52.1189 32.218C50.9176 32.966 49.5122 33.34 47.9029 33.34C45.9989 33.34 44.3442 32.7053 42.9389 31.436L42.5649 33.102C42.3836 33.1473 42.1682 33.17 41.9189 33.17C41.6696 33.17 41.4542 33.1473 41.2729 33.102ZM43.1089 23.956V29.838C44.6276 31.1527 46.2256 31.81 47.9029 31.81C49.7842 31.81 51.2576 31.1413 52.3229 29.804C53.4109 28.4667 53.9549 26.642 53.9549 24.33C53.9549 22.9247 53.7396 21.6893 53.3089 20.624C52.8782 19.536 52.2776 18.686 51.5069 18.074C50.7589 17.462 49.8976 17.156 48.9229 17.156C47.8802 17.156 46.9169 17.4733 46.0329 18.108C45.1489 18.72 44.4349 19.5473 43.8909 20.59C43.3696 21.61 43.1089 22.732 43.1089 23.956ZM66.6871 31.844C67.8658 31.844 68.8971 31.538 69.7811 30.926C70.6878 30.314 71.3791 29.4527 71.8551 28.342C72.3538 27.2313 72.6031 25.9507 72.6031 24.5C72.6031 23.0493 72.3538 21.7687 71.8551 20.658C71.3791 19.5473 70.6878 18.686 69.7811 18.074C68.8971 17.462 67.8658 17.156 66.6871 17.156C65.5084 17.156 64.4658 17.462 63.5591 18.074C62.6751 18.686 61.9838 19.5473 61.4851 20.658C61.0091 21.7687 60.7711 23.0493 60.7711 24.5C60.7711 25.9507 61.0091 27.2313 61.4851 28.342C61.9838 29.4527 62.6751 30.314 63.5591 30.926C64.4431 31.538 65.4858 31.844 66.6871 31.844ZM66.6871 33.34C65.1004 33.34 63.7178 32.9773 62.5391 32.252C61.3831 31.504 60.4764 30.4727 59.8191 29.158C59.1618 27.8207 58.8331 26.268 58.8331 24.5C58.8331 22.732 59.1618 21.1907 59.8191 19.876C60.4764 18.5387 61.3831 17.5073 62.5391 16.782C63.7178 16.034 65.1004 15.66 66.6871 15.66C68.2738 15.66 69.6451 16.034 70.8011 16.782C71.9798 17.5073 72.8978 18.5387 73.5551 19.876C74.2124 21.1907 74.5411 22.732 74.5411 24.5C74.5411 26.268 74.2124 27.8207 73.5551 29.158C72.8978 30.4727 71.9798 31.504 70.8011 32.252C69.6451 32.9773 68.2738 33.34 66.6871 33.34ZM70.5971 14.096L66.6871 10.56L62.7091 14.096C62.4824 13.9147 62.3124 13.7673 62.1991 13.654C62.1084 13.5407 62.0178 13.4047 61.9271 13.246L66.0071 8.724C66.0978 8.70133 66.2111 8.69 66.3471 8.69C66.4831 8.66733 66.6078 8.656 66.7211 8.656C66.8344 8.656 66.9591 8.66733 67.0951 8.69C67.2311 8.69 67.3444 8.70133 67.4351 8.724L71.4471 13.178C71.2658 13.4953 70.9824 13.8013 70.5971 14.096Z" fill="black"/>
<path d="M101.831 33.52L94.2315 22.96L92.7115 24.4V33L88.0715 33.56L87.2715 1L92.7115 1.8V20L100.431 10.12L106.391 11.36L96.5915 20.72L107.351 32.44L101.831 33.52ZM116.679 4.28C116.679 5.21333 116.346 6.01333 115.679 6.68C115.013 7.34667 114.213 7.68 113.279 7.68C112.346 7.68 111.546 7.34667 110.879 6.68C110.213 6.01333 109.879 5.21333 109.879 4.28C109.879 3.34667 110.213 2.54667 110.879 1.88C111.546 1.21333 112.346 0.879999 113.279 0.879999C114.213 0.879999 115.013 1.21333 115.679 1.88C116.346 2.54667 116.679 3.34667 116.679 4.28ZM110.439 33.56V10.12L116.159 10.8L115.359 33L110.439 33.56ZM140.001 33.4C139.334 32.8667 138.814 32.36 138.441 31.88C138.094 31.3733 137.801 30.7733 137.561 30.08C136.734 31.3333 135.708 32.2133 134.481 32.72C133.281 33.2 132.028 33.44 130.721 33.44C128.748 33.44 126.988 33.0133 125.441 32.16C123.921 31.28 122.721 29.9867 121.841 28.28C120.961 26.5467 120.521 24.4267 120.521 21.92C120.521 19.3867 120.988 17.2667 121.921 15.56C122.854 13.8267 124.081 12.52 125.601 11.64C127.148 10.76 128.828 10.32 130.641 10.32C132.054 10.32 133.241 10.5067 134.201 10.88C135.161 11.2533 135.974 11.9067 136.641 12.84V1L142.321 1.8L141.521 26.44C141.494 27.48 141.681 28.5067 142.081 29.52C142.508 30.5333 143.094 31.4133 143.841 32.16L140.001 33.4ZM136.801 17.44C136.374 16.5867 135.748 15.84 134.921 15.2C134.094 14.5333 133.094 14.2 131.921 14.2C130.908 14.2 129.921 14.4533 128.961 14.96C128.001 15.44 127.201 16.2533 126.561 17.4C125.948 18.52 125.641 20.04 125.641 21.96C125.641 23.8533 125.934 25.36 126.521 26.48C127.134 27.5733 127.921 28.36 128.881 28.84C129.868 29.32 130.894 29.56 131.961 29.56C132.868 29.56 133.681 29.3333 134.401 28.88C135.121 28.4 135.694 27.76 136.121 26.96C136.574 26.16 136.801 25.2933 136.801 24.36V17.44ZM163.611 16.68C162.838 15.9333 161.758 15.32 160.371 14.84C158.984 14.36 157.611 14.12 156.251 14.12C154.918 14.12 153.971 14.3467 153.411 14.8C152.851 15.2533 152.571 15.7867 152.571 16.4C152.571 16.9867 152.904 17.5067 153.571 17.96C154.264 18.4133 155.478 18.8133 157.211 19.16C160.224 19.7467 162.424 20.6667 163.811 21.92C165.224 23.1467 165.931 24.7733 165.931 26.8C165.931 28.9333 165.118 30.5733 163.491 31.72C161.891 32.8667 159.518 33.44 156.371 33.44C155.038 33.44 153.704 33.1867 152.371 32.68C151.064 32.1467 149.891 31.5067 148.851 30.76C147.838 29.9867 147.064 29.2667 146.531 28.6L148.491 26C148.998 26.5333 149.718 27.0667 150.651 27.6C151.611 28.1333 152.624 28.5733 153.691 28.92C154.784 29.2667 155.744 29.44 156.571 29.44C157.931 29.44 158.918 29.2267 159.531 28.8C160.171 28.3733 160.491 27.7733 160.491 27C160.491 26.1467 160.038 25.4533 159.131 24.92C158.251 24.3867 156.864 23.92 154.971 23.52C152.224 22.96 150.251 22.0933 149.051 20.92C147.851 19.7467 147.251 18.3467 147.251 16.72C147.251 14.88 148.038 13.36 149.611 12.16C151.184 10.9333 153.424 10.32 156.331 10.32C157.691 10.32 158.971 10.5067 160.171 10.88C161.398 11.2267 162.451 11.68 163.331 12.24C164.238 12.8 164.891 13.36 165.291 13.92L163.611 16.68Z" fill="#5C6898"/>
</svg>
